<?xml version="1.0" standalone="no"?>
<!DOCTYPE svg PUBLIC "-//W3C//DTD SVG 20010904//EN"
 "http://www.w3.org/TR/2001/REC-SVG-20010904/DTD/svg10.dtd">
<svg version="1.0" xmlns="http://www.w3.org/2000/svg"
 width="592.000000pt" height="687.000000pt" viewBox="0 0 592.000000 687.000000"
 preserveAspectRatio="xMidYMid meet">

<g transform="translate(0.000000,687.000000) scale(0.100000,-0.100000)"
fill="#000000" stroke="none">
<path d="M2252 6390 c-63 -17 -160 -48 -217 -71 -104 -40 -104 -40 -143 -102
-97 -155 -185 -346 -231 -502 -59 -201 -91 -484 -75 -656 l9 -96 -41 -11 c-49
-13 -98 -65 -113 -119 -6 -21 -11 -108 -11 -193 l0 -156 -196 -159 c-107 -87
-197 -162 -199 -166 -3 -4 83 -155 189 -335 l194 -329 -28 -30 c-40 -42 -55
-99 -41 -152 13 -46 57 -106 72 -97 5 3 9 -91 9 -228 0 -252 6 -297 48 -341
51 -55 63 -57 297 -57 118 0 215 -1 215 -3 0 -2 -80 -218 -178 -481 l-178
-477 -27 39 c-28 44 -96 82 -143 82 -48 -1 -110 -35 -143 -81 -52 -71 -53 -70
145 -67 l176 3 183 490 182 490 99 3 99 3 74 -133 c156 -281 467 -783 486
-783 5 0 38 68 73 150 125 297 174 371 294 436 58 32 69 34 148 33 73 -1 103
-8 219 -48 74 -25 136 -45 137 -43 1 1 -29 85 -67 187 -68 183 -78 213 -60
195 15 -17 140 -361 138 -382 0 -11 48 -151 108 -311 l108 -292 179 0 c98 0
178 4 178 9 0 22 -68 106 -100 123 -42 22 -111 23 -149 3 -16 -8 -45 -33 -65
-56 -20 -24 -37 -41 -39 -38 -2 2 -39 99 -82 214 -43 116 -88 238 -101 272
l-23 62 67 -1 c37 -1 87 5 112 13 70 21 153 111 231 249 38 68 86 137 119 171
78 81 115 91 346 87 179 -3 179 -3 237 25 62 31 98 74 140 169 50 112 99 145
253 167 138 21 186 49 249 147 18 28 56 70 84 94 l51 43 -127 47 c-342 125
-696 305 -990 502 -57 38 -103 72 -103 76 0 4 18 39 41 77 22 39 45 77 50 86
7 14 -30 48 -196 183 l-205 167 0 166 c0 148 -2 171 -21 209 -22 46 -66 80
-116 90 -29 6 -30 7 -22 47 22 111 6 389 -33 567 -59 277 -244 672 -337 720
-83 42 -375 130 -432 130 -9 0 -27 -24 -44 -59 l-28 -60 -66 7 c-84 9 -306 9
-391 0 l-65 -6 -27 59 c-32 70 -28 70 -186 29z m177 -720 c47 -23 94 -78 109
-125 l10 -35 -199 0 c-156 0 -199 3 -199 13 0 7 15 37 33 67 55 92 158 125
246 80z m754 4 c45 -23 76 -53 98 -96 36 -70 41 -68 -177 -68 l-196 0 6 28
c27 112 171 185 269 136z m-889 -209 c9 -35 51 -51 82 -31 12 9 25 25 29 36 6
18 15 20 76 20 l69 0 0 -32 c0 -122 -88 -218 -200 -218 -108 0 -190 79 -198
190 l-4 60 70 0 c66 0 70 -1 76 -25z m756 5 c0 -11 11 -27 25 -36 32 -21 71
-7 85 31 9 23 14 25 80 25 l70 0 0 -31 c0 -54 -22 -108 -61 -153 -49 -56 -84
-70 -159 -64 -48 3 -67 10 -97 35 -46 37 -81 101 -89 166 l-7 47 77 0 c69 0
76 -2 76 -20z m284 -501 c-3 -5 -35 -9 -72 -9 l-67 1 55 24 c50 21 57 22 72 8
10 -9 15 -20 12 -24z m-1119 11 l40 -19 -66 0 c-71 -1 -85 4 -68 26 15 18 46
15 94 -7z m-507 -89 c113 -71 264 -144 371 -182 l93 -32 19 24 c32 42 99 159
99 172 0 7 -28 24 -62 37 l-63 25 75 3 c50 2 103 -4 160 -17 230 -56 434 -56
657 0 54 13 106 19 155 17 l73 -3 -62 -25 c-35 -14 -63 -30 -63 -35 0 -11 80
-148 104 -178 17 -22 34 -19 181 40 117 47 197 88 309 161 62 39 75 44 114 39
53 -6 89 -31 114 -79 16 -31 18 -56 16 -191 l-3 -156 -98 80 c-54 44 -103 79
-109 77 -6 -2 39 -44 100 -94 l112 -89 0 -192 0 -192 -67 32 c-62 29 -77 32
-163 32 -86 0 -101 -3 -162 -32 -125 -59 -205 -165 -230 -303 -29 -166 81
-360 240 -421 113 -43 258 -34 350 23 l32 20 0 -364 c0 -405 -1 -410 -69 -455
l-34 -23 -1171 0 c-1157 0 -1171 0 -1204 20 -19 12 -41 38 -52 63 -18 39 -20
69 -20 399 l0 357 68 -32 c61 -29 75 -32 167 -32 93 0 105 2 167 33 84 41 167
128 199 209 29 74 32 204 6 278 -52 149 -215 265 -372 265 -57 0 -168 -30
-200 -54 -11 -9 -23 -16 -27 -16 -5 0 -8 85 -8 189 l0 189 116 93 c64 51 111
95 105 97 -7 2 -56 -33 -110 -77 -55 -45 -102 -81 -105 -81 -3 0 -6 69 -6 153
0 141 2 158 23 197 25 48 74 80 124 80 20 0 59 -17 111 -49z m-237 -807 c58
40 110 57 186 63 l71 6 6 -44 c3 -24 8 -100 11 -169 8 -159 29 -308 61 -416
13 -46 24 -88 24 -93 0 -14 -83 -31 -148 -31 -70 0 -135 18 -198 55 -40 23
-44 29 -30 37 24 14 100 12 128 -2 12 -7 35 -24 51 -38 15 -15 27 -20 27 -13
0 25 -61 71 -104 78 -22 4 -43 7 -46 6 -3 0 -21 -3 -41 -7 l-37 -6 -187 317
c-132 223 -185 321 -179 330 5 8 88 78 184 157 l175 143 5 -199 5 -198 36 24z
m2752 218 c97 -80 177 -148 177 -153 0 -9 -90 -159 -95 -159 -5 0 -189 144
-242 189 l-42 36 -1 123 c0 96 3 122 13 116 6 -5 92 -73 190 -152z m-41 -568
c-171 -290 -158 -262 -134 -287 28 -32 45 -92 37 -135 -8 -46 -42 -102 -61
-102 -11 0 -8 10 12 35 76 100 7 245 -116 245 -49 0 -104 -24 -125 -53 -8 -12
-18 -18 -22 -14 -11 12 48 66 85 78 32 11 91 8 137 -6 18 -5 36 21 139 197
155 264 169 285 173 272 2 -6 -54 -110 -125 -230z m-2754 -447 l-3 -62 -23 25
c-51 55 -51 140 0 206 l23 29 3 -68 c2 -37 2 -96 0 -130z"/>
</g>
</svg>
