<svg id="редактирование" xmlns="http://www.w3.org/2000/svg" xmlns:xlink="http://www.w3.org/1999/xlink" viewBox="0 0 200 200"><defs><style>.cls-1,.cls-3{fill:#fff;}.cls-1,.cls-2,.cls-6{stroke:#000;}.cls-1,.cls-2,.cls-5{stroke-miterlimit:10;stroke-width:0.65px;}.cls-2,.cls-5,.cls-6{fill:none;}.cls-4{clip-path:url(#clip-path);}.cls-5{stroke:#fff;}.cls-6{stroke-linecap:square;stroke-linejoin:bevel;stroke-width:0.62px;}</style><clipPath id="clip-path"><path class="cls-1" d="M126.1,144l-32.21-2.81a8.24,8.24,0,0,1-7.5-8.93L94,45.44a8.24,8.24,0,0,1,8.93-7.5l29.23,2.55a15.63,15.63,0,1,1,20.63,1.8L182,44.83a8.25,8.25,0,0,1,7.5,8.94l-3,34.48a15.62,15.62,0,1,0-1.56,17.89l-3,34.48a8.24,8.24,0,0,1-8.93,7.5l-32.22-2.8Z"/></clipPath></defs><line class="cls-2" x1="89.1" y1="101.17" x2="74.12" y2="86.19"/><line class="cls-2" x1="140.78" y1="121.38" x2="147" y2="186.92"/><path class="cls-3" d="M126.1,144l-32.21-2.81a8.24,8.24,0,0,1-7.5-8.93L94,45.44a8.24,8.24,0,0,1,8.93-7.5l29.23,2.55a15.63,15.63,0,1,1,20.63,1.8L182,44.83a8.25,8.25,0,0,1,7.5,8.94l-3,34.48a15.62,15.62,0,1,0-1.56,17.89l-3,34.48a8.24,8.24,0,0,1-8.93,7.5l-32.22-2.8Z"/><g class="cls-4"><polygon points="180.69 148.16 88.51 29.82 81.32 148.62 180.69 148.16"/></g><path class="cls-2" d="M126.1,144l-32.21-2.81a8.24,8.24,0,0,1-7.5-8.93L94,45.44a8.24,8.24,0,0,1,8.93-7.5l29.23,2.55a15.63,15.63,0,1,1,20.63,1.8L182,44.83a8.25,8.25,0,0,1,7.5,8.94l-3,34.48a15.62,15.62,0,1,0-1.56,17.89l-3,34.48a8.24,8.24,0,0,1-8.93,7.5l-32.22-2.8Z"/><path d="M100.6,186.81a10.76,10.76,0,0,1,19.79.21Z"/><line class="cls-2" x1="117.4" y1="143.28" x2="120.06" y2="187.02"/><line class="cls-5" x1="116.25" y1="124.47" x2="117.4" y2="143.28"/><path d="M127.49,186.88a10.73,10.73,0,0,1,14.14-5.63,12.7,12.7,0,0,1,5.65,5.67Z"/><path class="cls-1" d="M16.9,71.81,62,50.69c5.34-2.56,11.81.93,12.21,6.84,0,.21,0,.41,0,.62v71.54L30.07,148.62V81a9.79,9.79,0,0,0-8.62-9.72,9.18,9.18,0,0,0-1.17-.07h0A9.79,9.79,0,0,0,10.49,81"/><line class="cls-2" x1="68.53" y1="65.94" x2="37.2" y2="79.52"/><line class="cls-2" x1="43.28" y1="87.22" x2="37.2" y2="89.85"/><line class="cls-2" x1="68.53" y1="76.26" x2="50.71" y2="83.99"/><line class="cls-2" x1="51.86" y1="94.11" x2="37.2" y2="100.18"/><line class="cls-2" x1="68.53" y1="86.59" x2="58.85" y2="90.51"/><path class="cls-3" d="M79.24,115.32a3.33,3.33,0,0,1-2.12-.75L41.47,85.84,39.64,79.6l6.44.52,35.65,28.73A3.36,3.36,0,0,1,83,111.23a3.81,3.81,0,0,1-3.74,4.09Z"/><path d="M40.09,80l5.87.48L81.53,109.1a3.27,3.27,0,0,1,.36,4.6A3.4,3.4,0,0,1,79.24,115a3,3,0,0,1-1.91-.67L41.76,85.65,40.09,80m-.9-.73,2,6.8,35.73,28.8a3.67,3.67,0,0,0,2.32.81,4.08,4.08,0,0,0,3.16-1.53h0a3.91,3.91,0,0,0-.46-5.51L46.21,79.8l-7-.57Z"/><path d="M73.54,112l3.38,2.85a3.91,3.91,0,0,0,5.48-.72h0a3.91,3.91,0,0,0-.46-5.51l-3.65-2.95"/><polyline points="46.21 79.8 39.19 79.23 41.19 86.03"/><line class="cls-5" x1="87.74" y1="116.75" x2="107.67" y2="101.49"/><path class="cls-2" d="M55,86.8a6.44,6.44,0,0,1,5.75,5c.53,2.7-.3,5.65-2.77,6.84l19.73,25.79L86,118.12l1.78-1.37"/><path d="M26.48,73.17a14.74,14.74,0,0,0-4.57-1.73c-.4,0-1.22-.07-1.22-.07-5.63,0-10.2,3.89-10.2,9.52Z"/><circle class="cls-3" cx="116.25" cy="74.33" r="13.24"/><circle cx="111.59" cy="73.45" r="3.41"/><line class="cls-2" x1="127.57" y1="66.97" x2="108.18" y2="62.73"/><path class="cls-6" d="M128.15,80.71A13.51,13.51,0,0,0,113,61.23"/></svg>