<svg xmlns="http://www.w3.org/2000/svg" xmlns:xlink="http://www.w3.org/1999/xlink" viewBox="0 0 200 200"><defs><style>.cls-1,.cls-3{fill:#fff;}.cls-2,.cls-5,.cls-8{fill:none;}.cls-2,.cls-3,.cls-4,.cls-8{stroke:#000;}.cls-2,.cls-3,.cls-4,.cls-5,.cls-7,.cls-8{stroke-miterlimit:10;}.cls-2,.cls-3,.cls-4,.cls-5,.cls-7{stroke-width:0.65px;}.cls-5,.cls-7{stroke:#fff;}.cls-6{clip-path:url(#clip-path);}.cls-8{stroke-width:0.49px;}</style><clipPath id="clip-path"><path class="cls-1" d="M117.6,113.54h0a3.91,3.91,0,0,1,.46-5.51l35.73-28.79,7-.57-2,6.8-35.73,28.79A3.9,3.9,0,0,1,117.6,113.54Z"/></clipPath></defs><g id="редактирование"><line class="cls-2" x1="110.45" y1="101.05" x2="125.88" y2="85.62"/><line class="cls-2" x1="59.22" y1="120.81" x2="53" y2="186.35"/><path class="cls-3" d="M73.9,143.47l32.21-2.8a8.25,8.25,0,0,0,7.5-8.94L106,44.88a8.24,8.24,0,0,0-8.93-7.5L67.88,39.92a15.63,15.63,0,1,0-20.63,1.8L18,44.27a8.24,8.24,0,0,0-7.5,8.93l3,34.48a15.63,15.63,0,1,1,1.56,17.9l3,34.48a8.25,8.25,0,0,0,8.93,7.5l32.22-2.81Z"/><path d="M99.4,186.24a10.76,10.76,0,0,0-19.79.21Z"/><line class="cls-2" x1="83.75" y1="123.91" x2="79.94" y2="186.45"/><path d="M72.51,186.32a10.74,10.74,0,0,0-14.14-5.64,12.75,12.75,0,0,0-5.65,5.67Z"/><path class="cls-4" d="M183.1,71.24,138,50.12c-5.34-2.56-11.81.94-12.21,6.85,0,.2,0,.41,0,.62v71.54l44.13,18.93V80.43a9.8,9.8,0,0,1,8.62-9.72,11.48,11.48,0,0,1,1.17-.07h0a9.79,9.79,0,0,1,9.79,9.79"/><path class="cls-3" d="M173.52,72.61a14.78,14.78,0,0,1,4.57-1.74c.4,0,1.22-.07,1.22-.07,5.63,0,10.2,3.89,10.2,9.53Z"/><line class="cls-5" x1="131.47" y1="65.37" x2="162.8" y2="78.96"/><line class="cls-5" x1="156.72" y1="86.65" x2="162.8" y2="89.29"/><line class="cls-5" x1="131.47" y1="75.7" x2="149.29" y2="83.43"/><line class="cls-5" x1="148.14" y1="93.54" x2="162.8" y2="99.62"/><line class="cls-5" x1="131.47" y1="86.03" x2="141.15" y2="89.95"/><path class="cls-1" d="M117.6,113.54h0a3.91,3.91,0,0,1,.46-5.51l35.73-28.79,7-.57-2,6.8-35.73,28.79A3.9,3.9,0,0,1,117.6,113.54Z"/><g class="cls-6"><polyline class="cls-7" points="153.79 79.24 159.76 86.42 162.03 77.43 152.04 78.96 153.79 79.24"/></g><path d="M127,111.1l-3.94,3.16a3.9,3.9,0,0,1-5.48-.72h0a3.91,3.91,0,0,1,.46-5.51l4.3-3.46"/><line class="cls-2" x1="102.43" y1="109.02" x2="92.36" y2="101.48"/><path class="cls-8" d="M127,111.1l-3.94,3.16a3.9,3.9,0,0,1-5.48-.72h0a3.91,3.91,0,0,1,.46-5.51l4.3-3.46"/><polygon class="cls-5" points="127.02 111.1 158.81 85.47 160.81 78.67 153.79 79.24 122.36 104.57 127.02 111.1"/><line class="cls-2" x1="114.06" y1="117.72" x2="102.43" y2="109.02"/><polyline class="cls-2" points="125.8 119.37 122.33 123.91 114.06 117.72"/><line class="cls-5" x1="139.82" y1="101.05" x2="125.8" y2="119.37"/><path class="cls-2" d="M139.29,91.28c-.53,2.69.3,5.65,2.77,6.84l-2.24,2.93"/><path class="cls-5" d="M145,86.23a6.46,6.46,0,0,0-5.75,5"/></g><g id="Слой_7" data-name="Слой 7"><circle class="cls-3" cx="83.75" cy="74.33" r="13.24"/><circle cx="88.41" cy="73.45" r="3.41"/><line class="cls-2" x1="72.8" y1="66.89" x2="90.58" y2="63"/></g></svg>