<svg xmlns="http://www.w3.org/2000/svg" xmlns:xlink="http://www.w3.org/1999/xlink" viewBox="0 0 403.46 403.46"><defs><style>.cls-1,.cls-2,.cls-5,.cls-6,.cls-8{stroke:#000;}.cls-1,.cls-2,.cls-5,.cls-6,.cls-7,.cls-8{stroke-miterlimit:10;}.cls-2,.cls-4{fill:#fff;}.cls-3{clip-path:url(#clip-path);}.cls-5,.cls-6,.cls-7,.cls-8{fill:none;}.cls-6,.cls-7{stroke-width:0.99px;}.cls-7{stroke:#fff;}.cls-8{stroke-linecap:round;}</style><clipPath id="clip-path"><rect class="cls-1" x="134.79" y="69.81" width="177" height="175" rx="2.82"/></clipPath></defs><g id="окна"><path class="cls-2" d="M333,205.11A28.6,28.6,0,0,0,282.26,189V149.61A10.27,10.27,0,0,0,272,139.34H132.53a10.27,10.27,0,0,0-10.27,10.27V189a28.6,28.6,0,1,0,0,36v39.33a10.27,10.27,0,0,0,10.27,10.27h57.29a25.34,25.34,0,1,1,24.87,0H272a10.27,10.27,0,0,0,10.27-10.27V224.94A28.6,28.6,0,0,0,333,205.11Z"/><rect x="134.79" y="69.81" width="134.93" height="86.67" rx="2.82"/><g class="cls-3"><polygon class="cls-4" points="131.71 95.15 273.3 95.15 273.3 69.81 273.3 65.15 130.89 65.15 131.71 95.15"/></g><rect class="cls-5" x="134.79" y="69.81" width="134.93" height="86.67" rx="2.82"/><line class="cls-5" x1="244.74" y1="75.67" x2="260.35" y2="91.27"/><line class="cls-5" x1="260.35" y1="75.67" x2="244.74" y2="91.27"/><line class="cls-5" x1="217.93" y1="91.27" x2="232.35" y2="91.27"/><polyline class="cls-6" points="132.98 129.61 104.75 159.47 132 206.75"/><path class="cls-7" d="M146,123.48c-1,4.68-4.35,8.13-8.33,8.13a7.16,7.16,0,0,1-1.61-.19"/><path class="cls-6" d="M136.08,131.42c-4-1-7-5.44-7-10.81,0-5.7,3.4-10.38,7.75-11"/><polyline class="cls-6" points="271.71 129.61 299.95 159.47 271.71 206.41"/><path class="cls-7" d="M258.67,123.48c1,4.68,4.35,8.13,8.33,8.13a7.16,7.16,0,0,0,1.61-.19"/><path class="cls-6" d="M268.61,131.42c4-1,7-5.44,7-10.81,0-5.7-3.39-10.38-7.74-11"/><polyline class="cls-8" points="168.55 274.54 155.55 326.63 133.01 325.14"/><path d="M130.53,326.22a13.51,13.51,0,0,1,24.83.49"/><polyline class="cls-8" points="235.53 274.62 248.53 326.71 271.06 325.22"/><path d="M273.55,326.22a13.52,13.52,0,0,0-24.84.49"/><circle class="cls-2" cx="202.26" cy="192.26" r="23.86"/><circle cx="202.26" cy="192.26" r="6.14"/><line class="cls-5" x1="184.17" y1="176.71" x2="220.35" y2="176.71"/></g></svg>
