<svg xmlns="http://www.w3.org/2000/svg" viewBox="0 0 264.19 362.21"><defs><style>.cls-1{fill:#ffffff;}.cls-2{fill:#ffffff;}.cls-3{fill:#ffffff;}</style></defs><title>Ресурс 1</title><g id="Слой_2" data-name="Слой 2"><g id="Layer_1" data-name="Layer 1"><path class="cls-1" d="M88.48,84.5a.77.77,0,0,1,1,.54l9.89,37s1.46,7,7.64,6.29a9.5,9.5,0,0,0,6.1-5.11s.9-1.6,2.09-3.8a5.38,5.38,0,0,1,1.85-2,8.78,8.78,0,0,1,5-1.4s3.46-.64,7.43,8.7c0,0,4.05,10.36,0,15.07,0,0-2,3.4-8.15,2.09a.69.69,0,0,1-.25-.1,41.6,41.6,0,0,0-7-3.77l-.06,0c-.46-.12-6.39-1.6-8.18,4.49a4.89,4.89,0,0,0-.21,1.47,32.69,32.69,0,0,0,.35,4,.36.36,0,0,0,0,.1l12.44,48.1a.77.77,0,0,0,1,.55l41-11.34s2.37-.87,2.47,1.07c0,0,.45,1.57-2.53,8.21v0c-.06.16-1.84,5.12,1.25,13.48v0c.11.21,2.69,5.53,7.17,6.69,0,0,4.26,2.05,10.72,0,0,0,9-1.31,12.58-9a5.89,5.89,0,0,0,.24-.58c.62-1.75,3-10.14-4.42-18.3l-.09-.08-5.59-4.64s-1.74-2.31.21-3.1c0,0,23.08-7.32,35.59-10.31a.75.75,0,0,1,.9.52l22.69,71.91s3.79,12-8,15.15L83.87,297.13l-.1,0c-1,.46-18.27,8.41-13.14,31.92,0,0,4.6,21.72,32.05,18.95l.14,0,151.06-40.7.1,0c.62-.07,7.56-.77,9.56,4.28,0,0,2.64,4.64-2.71,8.78a.85.85,0,0,1-.3.15L103.58,362.08l-.13,0c-1.58.12-31.52,2.2-42.54-20l-.06-.14L1,144.63S-7,114.7,23.25,103l.08,0Z"/><path class="cls-1" d="M256.44,104.66A1.24,1.24,0,0,0,257,103L209.53,9.26S204.29-3.9,189,1.16a.94.94,0,0,0-.23.1L115.43,40.88a5.13,5.13,0,0,0-2.3,7.39l19.52,38.24s2.06,4.26,5.18,3c0,0,2.38-.36,3.55-5.81A24,24,0,0,1,143.19,79a5.87,5.87,0,0,1,.43-.67A11,11,0,0,1,152.51,74s5.75-.26,11.35,10.61c0,0,5.42,9.63,1.93,15.65,0,0-2.4,5-9.38,5,0,0-.45.44-7-1.86,0,0-3.73-1.23-5.25,1,0,0-1.94,1.19.91,7L163.56,148s2.12,4.75,7.56,2.38l28.42-15.22.05,0c.31-.15,4.3-2,5-2,0,0,2.93-.4,4.16,3.66,0,0,.63,1.69-.68,8.34a.31.31,0,0,0,0,.1c-.06.69-.59,8.52,5.58,13.56,0,0,4.54,4.89,13.89-.35,0,0,8.68-3.8,8.23-11.53,0,0-.4-7.09-5.64-11.12a5.06,5.06,0,0,0-2-1.33,63.44,63.44,0,0,1-6.44-3.57,5.15,5.15,0,0,1-1.51-5.8s0-.75,2.54-2.29Z"/><path class="cls-2" d="M93.08,317.08s-5.14,3.94-3,10.2a7.92,7.92,0,0,0,8.13,2.32l145.46-40.09s5.13-2.54,3.73-9c0,0-.23-5.79-8.4-4.63Z"/><polygon class="cls-3" points="72.17 139.68 50.39 128.71 38.79 150.16 22.59 98.57 55.97 88.09 72.17 139.68"/></g></g></svg>
