<svg id="поиск" xmlns="http://www.w3.org/2000/svg" xmlns:xlink="http://www.w3.org/1999/xlink" viewBox="0 0 200 200"><defs><style>.cls-1,.cls-2,.cls-7{fill:#fff;}.cls-1,.cls-4,.cls-5,.cls-6,.cls-7{stroke:#000;stroke-miterlimit:10;}.cls-1,.cls-4,.cls-5,.cls-6{stroke-width:0.86px;}.cls-3{clip-path:url(#clip-path);}.cls-4,.cls-6{fill:none;}.cls-6{stroke-linecap:round;}.cls-7{stroke-width:0.99px;}</style><clipPath id="clip-path"><path class="cls-1" d="M88.38,16.1a22.59,22.59,0,0,1,9,13.51c2.51,10.88-3.27,21.85-13.12,24.92C73.48,57.88,62,50.93,58.71,39.26a22.47,22.47,0,0,1,1-15.2l-45,12.51L28.53,86.13A19.07,19.07,0,0,1,41.68,75.88C51.39,73.87,61.45,80,65,90.16c4.15,11.92-1.91,24.49-13,27.57a19.18,19.18,0,0,1-15.35-2.37l10.48,37.69c1.82,6.55,8.21,10.5,14.27,8.82L158.09,135c6-1.68,9.49-8.36,7.67-14.92L136.68,15.46c-1.83-6.55-8.22-10.5-14.27-8.81Z"/></clipPath></defs><path class="cls-2" d="M88.38,16.1a22.59,22.59,0,0,1,9,13.51c2.51,10.88-3.27,21.85-13.12,24.92C73.48,57.88,62,50.93,58.71,39.26a22.47,22.47,0,0,1,1-15.2l-45,12.51L28.53,86.13A19.07,19.07,0,0,1,41.68,75.88C51.39,73.87,61.45,80,65,90.16c4.15,11.92-1.91,24.49-13,27.57a19.18,19.18,0,0,1-15.35-2.37l10.48,37.69c1.82,6.55,8.21,10.5,14.27,8.82L158.09,135c6-1.68,9.49-8.36,7.67-14.92L136.68,15.46c-1.83-6.55-8.22-10.5-14.27-8.81Z"/><g class="cls-3"><polygon points="52.1 162.26 133.78 1.73 14.75 6.26 10 57.4 39.29 167.52 52.1 162.26"/></g><path class="cls-4" d="M88.38,16.1a22.59,22.59,0,0,1,9,13.51c2.51,10.88-3.27,21.85-13.12,24.92C73.48,57.88,62,50.93,58.71,39.26a22.47,22.47,0,0,1,1-15.2l-45,12.51L28.53,86.13A19.07,19.07,0,0,1,41.68,75.88C51.39,73.87,61.45,80,65,90.16c4.15,11.92-1.91,24.49-13,27.57a19.18,19.18,0,0,1-15.35-2.37l10.48,37.69c1.82,6.55,8.21,10.5,14.27,8.82L158.09,135c6-1.68,9.49-8.36,7.67-14.92L136.68,15.46c-1.83-6.55-8.22-10.5-14.27-8.81Z"/><line class="cls-4" x1="96.74" y1="138.54" x2="69.79" y2="185.36"/><path d="M69.79,185.36a11.59,11.59,0,0,1,19.59,8.38"/><path d="M140.24,190.1a11.6,11.6,0,0,1,20.81-4.62"/><line class="cls-4" x1="123" y1="144.94" x2="140.24" y2="190.1"/><line class="cls-2" x1="164.09" y1="76.52" x2="185.25" y2="113.06"/><path d="M164.09,76.52l25.61,34a5.18,5.18,0,1,1-8.28,6.24,5.34,5.34,0,0,1-.63-1.08Z"/><circle class="cls-5" cx="153.5" cy="60.81" r="26.96"/><polyline class="cls-4" points="112.1 94.68 141.06 113.06 164.45 89.66"/><path class="cls-6" d="M177.58,86.41a14.09,14.09,0,0,1-3.7,3c-4,2.33-8.3,2.48-9.54.33-.82-1.42-.09-3.5,1.67-5.42"/><circle class="cls-7" cx="153.37" cy="60.63" r="20.48"/><circle cx="158.52" cy="57.2" r="5.27"/><line class="cls-4" x1="133.83" y1="53.99" x2="166.03" y2="44.02"/></svg>