<svg id="поиск" xmlns="http://www.w3.org/2000/svg" viewBox="0 0 200 200"><defs><style>.cls-1,.cls-3,.cls-6{fill:#fff;}.cls-1,.cls-2,.cls-4,.cls-5,.cls-6{stroke:#000;stroke-miterlimit:10;}.cls-1,.cls-2,.cls-4,.cls-5{stroke-width:0.86px;}.cls-2,.cls-5{fill:none;}.cls-5{stroke-linecap:round;}.cls-6{stroke-width:0.99px;}</style></defs><path class="cls-1" d="M88.48,16.1a22.64,22.64,0,0,1,9,13.51C100,40.49,94.2,51.46,84.34,54.53c-10.76,3.35-22.29-3.6-25.53-15.27a22.47,22.47,0,0,1,1-15.2l-45,12.51L28.63,86.13A19.07,19.07,0,0,1,41.78,75.88c9.7-2,19.77,4.16,23.29,14.28,4.15,11.92-1.91,24.49-13,27.57a19.18,19.18,0,0,1-15.35-2.37l10.48,37.69c1.82,6.55,8.21,10.5,14.27,8.82L158.18,135c6.06-1.68,9.5-8.36,7.67-14.92L136.77,15.46C135,8.91,128.56,5,122.5,6.65Z"/><line class="cls-2" x1="96.84" y1="138.54" x2="69.89" y2="185.36"/><path d="M69.89,185.36a11.59,11.59,0,0,1,19.59,8.38"/><path d="M140.34,190.1a11.6,11.6,0,0,1,20.81-4.62"/><line class="cls-2" x1="123.1" y1="144.94" x2="140.34" y2="190.1"/><line class="cls-3" x1="163.99" y1="76.55" x2="185.15" y2="113.08"/><path d="M164,76.55l25.62,34a5.19,5.19,0,1,1-8.91,5.16Z"/><circle class="cls-4" cx="153.41" cy="60.84" r="26.96"/><polyline class="cls-2" points="112 94.71 140.96 113.08 164.35 89.69"/><path class="cls-5" d="M177.49,86.44a14.43,14.43,0,0,1-3.7,3c-4,2.32-8.31,2.47-9.55.33-.82-1.42-.09-3.51,1.68-5.43"/><circle class="cls-6" cx="153.37" cy="60.63" r="20.48"/><circle cx="158.52" cy="57.2" r="5.27"/><line class="cls-2" x1="133.83" y1="53.99" x2="166.03" y2="44.02"/></svg>