<svg id="окна" xmlns="http://www.w3.org/2000/svg" xmlns:xlink="http://www.w3.org/1999/xlink" viewBox="0 0 200 200"><defs><style>.cls-1,.cls-10,.cls-2,.cls-5,.cls-6,.cls-8,.cls-9{stroke:#000;}.cls-1,.cls-10,.cls-2,.cls-5,.cls-6,.cls-7,.cls-8,.cls-9{stroke-miterlimit:10;}.cls-1,.cls-2,.cls-5,.cls-7,.cls-8{stroke-width:0.95px;}.cls-2,.cls-4,.cls-9{fill:#fff;}.cls-3{clip-path:url(#clip-path);}.cls-10,.cls-5,.cls-6,.cls-7,.cls-8{fill:none;}.cls-6{stroke-width:0.75px;}.cls-7{stroke:#fff;}.cls-8{stroke-linecap:round;}.cls-10,.cls-9{stroke-width:0.95px;}</style><clipPath id="clip-path"><rect class="cls-1" x="50.42" y="5.6" width="99.16" height="63.69" rx="2.07"/></clipPath></defs><path class="cls-2" d="M196.1,105a21,21,0,0,0-37.31-11.88V64.25a7.55,7.55,0,0,0-7.55-7.55H48.76a7.55,7.55,0,0,0-7.55,7.55V93.16a21,21,0,1,0,0,26.44v28.91a7.55,7.55,0,0,0,7.55,7.55h42.1a18.62,18.62,0,1,1,18.28,0h42.1a7.55,7.55,0,0,0,7.55-7.55V119.6A21,21,0,0,0,196.1,105Z"/><rect x="50.42" y="5.6" width="99.16" height="63.69" rx="2.07"/><g class="cls-3"><polygon class="cls-4" points="48.15 24.23 152.21 24.23 152.21 5.6 152.21 2.18 47.55 2.18 48.15 24.23"/></g><rect class="cls-5" x="50.42" y="5.6" width="99.16" height="63.69" rx="2.07"/><line class="cls-6" x1="131.22" y1="9.91" x2="142.69" y2="21.38"/><line class="cls-6" x1="142.69" y1="9.91" x2="131.22" y2="21.38"/><line class="cls-6" x1="111.52" y1="21.38" x2="122.11" y2="21.38"/><polyline class="cls-5" points="49.09 49.55 28.34 71.5 48.37 106.24"/><path class="cls-7" d="M58.67,45.05c-.73,3.44-3.19,6-6.12,6a5.08,5.08,0,0,1-1.18-.14"/><path class="cls-5" d="M51.37,50.88c-2.94-.71-5.16-4-5.16-8,0-4.18,2.49-7.62,5.69-8"/><polyline class="cls-5" points="151.04 49.55 171.79 71.5 151.04 105.99"/><path class="cls-7" d="M141.46,45.05c.73,3.44,3.19,6,6.12,6a5.15,5.15,0,0,0,1.18-.14"/><path class="cls-5" d="M148.76,50.88c2.94-.71,5.16-4,5.16-8,0-4.18-2.49-7.62-5.69-8"/><polyline class="cls-8" points="75.23 156.06 65.67 194.34 49.11 193.24"/><path d="M47.28,194a9.93,9.93,0,0,1,18.26.36"/><polyline class="cls-8" points="124.45 156.12 134 194.4 150.56 193.3"/><path d="M152.39,194a9.92,9.92,0,0,0-18.25.36"/><circle class="cls-9" cx="100" cy="97" r="17.54"/><circle cx="100" cy="97" r="4.52"/><line class="cls-10" x1="86.7" y1="85.57" x2="113.3" y2="85.57"/></svg>